<?xml version="1.0" encoding="utf-8"?>
<svg version="1.1" id="Capa_1" xmlns="http://www.w3.org/2000/svg" xmlns:xlink="http://www.w3.org/1999/xlink" x="0px" y="0px"
        viewBox="0 0 727.13 247.08" style="enable-background:new 0 0 727.13 247.08;" xml:space="preserve">
    <style type="text/css">
        .st0{fill:#3C3C3B;}
        .st1{fill:#006633;}
        .st4{opacity: 2;}
        <!-- .st3 {stroke-width: 4;animation: trazar 5s ease-out infinite forwards;}     -->
        <!-- #trazo1 {stroke-dasharray: 749.10; stroke-dashoffset: 749.10;}
        #trazo2 {stroke-dasharray: 627.88; stroke-dashoffset: 627.881;} -->
        <!-- @keyframes trazar {
            80% {stroke-dashoffset: 0; stroke-width: 4;}  
            90% {stroke-width: 2; opacity: 2;}
            100% {opacity: 1; stroke-dashoffset: 0;}
        } -->
    </style>
    <g>
        <path id="trazo1" class="st3" fill="none" stroke="#000"  d="M127.68,32.09c0,0,89.2,89.28,91.46,91.47c0.63,0.61,0.75,0.96,0.06,1.65c-6.62,6.56-13.2,13.15-19.79,19.74
            c-1.76,1.76-3.54,3.52-5.26,5.32c-0.54,0.57-0.87,0.57-1.47,0.05c-4.42-3.9-38.47-33.19-41.42-35.86
            c-0.88-0.79-1.44-0.75-2.27,0.01c-2.85,2.58-5.77,5.1-8.65,7.65c-0.39,0.35-0.69,0.57-1.21,0.11c-2.02-1.81-4.05-3.6-6.12-5.36
            c-0.56-0.48-0.24-0.68,0.11-0.98c3.26-2.85,14.15-12.32,16.3-14.25c0.59-0.53,0.92-0.48,1.5,0.04
            c7.17,6.28,38.75,33.45,40.75,35.26c0.55,0.5,0.83,0.39,1.27-0.07c3.88-3.92,7.77-7.83,11.7-11.71c0.63-0.62,0.55-0.97-0.05-1.56
            c-10.82-10.77-70.8-70.79-76.71-76.75c-0.82-0.83-1.29-0.85-2.13,0c-9.31,9.37-75.35,75.46-76.76,76.77
            c-0.67,0.62-0.55,1.02,0.03,1.59c3.21,3.17,6.36,6.39,9.59,9.53c0.7,0.69,0.78,1.05-0.03,1.71c-2.09,1.72-4.11,3.54-6.15,5.33
            c-0.47,0.41-0.83,0.62-1.41,0.04c-5.51-5.56-11.05-11.1-16.61-16.62c-0.65-0.65-0.61-0.98,0.04-1.62
            c6.16-6.13,91.51-91.47,91.51-91.47C126.43,31.57,127.16,31.51,127.68,32.09z"></path>
        <path id="trazo2" class="st3" fill="none" stroke="#006633"  d="M162.91,147.82c-3,0-5.48-0.03-8.31,0.06c-4.21,0.12-7.2-1.06-10.24-3.9c-3.49-3.25-31.59-27.53-34.2-29.84
            c-0.59-0.52-0.99-0.32-1.46,0.09c-2.09,1.84-34.72,30.23-37.06,32.13c-0.78,0.63-0.52,0.95,0.01,1.47
            c4.59,4.57,53.18,53.08,54.2,54.21c0.7,0.78,1.22,0.77,1.91,0.05c1.94-2.01,48.06-48.16,52.24-52.37c0.69-0.7,1.18-0.64,1.87-0.02
            c1.95,1.75,3.92,3.47,5.94,5.14c0.79,0.65,0.73,1.04,0.03,1.73c-7.18,7.14-59.06,59.22-59.89,60.11c-0.72,0.78-1.41,0.9-2.21,0.08
            c-3.04-3.14-63.97-63.98-67.13-67.1c-0.31-0.3-0.52-0.7-0.81-1.02c-1.52-1.68-1.55-1.71,0.24-3.12
            c3.93-3.11,23.9-20.51,25.09-21.45c0.88-0.7,1.01-1.64,0.95-2.56c-0.29-4.46-0.01-8.93-0.13-13.39c-0.02-0.79,0.34-1.09,1.11-1.08
            c2.54,0.02,5.08,0.05,7.62,0c0.91-0.02,1.11,0.39,1.1,1.18c-0.03,1.71,0.01,3.42,0.01,5.13c0,0.72,0.71,0.7,0.94,0.51
            c3.81-3.27,13.3-11.62,14.3-12.46c0.47-0.4,0.85-0.27,1.26,0.1C117.55,107.94,159.15,144.47,162.91,147.82z"></path>
        <g>
            <path class="st3" fill="rgba(0, 0, 0, 0.6)"  d="M107.22,147.96h-5.59c-0.53,0-0.96-0.43-0.96-0.96v-5.59c0-0.53,0.43-0.96,0.96-0.96h5.59
                c0.53,0,0.96,0.43,0.96,0.96V147C108.19,147.53,107.76,147.96,107.22,147.96z"></path>
            <path class="st3" fill="rgba(0, 0, 0, 0.6)"  d="M107.22,138.21h-5.59c-0.53,0-0.96-0.43-0.96-0.96v-5.59c0-0.53,0.43-0.96,0.96-0.96h5.59
                c0.53,0,0.96,0.43,0.96,0.96v5.59C108.19,137.78,107.76,138.21,107.22,138.21z"></path>
            <path class="st3" fill="rgba(0, 0, 0, 0.6)"  d="M117.39,138.21h-5.59c-0.53,0-0.96-0.43-0.96-0.96v-5.59c0-0.53,0.43-0.96,0.96-0.96h5.59
                c0.53,0,0.96,0.43,0.96,0.96v5.59C118.35,137.78,117.92,138.21,117.39,138.21z"></path>
            <path class="st3" fill="rgba(0, 0, 0, 0.6)"  d="M117.39,147.96h-5.59c-0.53,0-0.96-0.43-0.96-0.96v-5.59c0-0.53,0.43-0.96,0.96-0.96h5.59
                c0.53,0,0.96,0.43,0.96,0.96V147C118.35,147.53,117.92,147.96,117.39,147.96z"></path>
        </g>
    </g>
    <g>
        <path class="" fill="rgba(0, 0, 0, 0.5)" stroke=""  d="M127.68,32.09c0,0,89.2,89.28,91.46,91.47c0.63,0.61,0.75,0.96,0.06,1.65c-6.62,6.56-13.2,13.15-19.79,19.74
            c-1.76,1.76-3.54,3.52-5.26,5.32c-0.54,0.57-0.87,0.57-1.47,0.05c-4.42-3.9-38.47-33.19-41.42-35.86
            c-0.88-0.79-1.44-0.75-2.27,0.01c-2.85,2.58-5.77,5.1-8.65,7.65c-0.39,0.35-0.69,0.57-1.21,0.11c-2.02-1.81-4.05-3.6-6.12-5.36
            c-0.56-0.48-0.24-0.68,0.11-0.98c3.26-2.85,14.15-12.32,16.3-14.25c0.59-0.53,0.92-0.48,1.5,0.04
            c7.17,6.28,38.75,33.45,40.75,35.26c0.55,0.5,0.83,0.39,1.27-0.07c3.88-3.92,7.77-7.83,11.7-11.71c0.63-0.62,0.55-0.97-0.05-1.56
            c-10.82-10.77-70.8-70.79-76.71-76.75c-0.82-0.83-1.29-0.85-2.13,0c-9.31,9.37-75.35,75.46-76.76,76.77
            c-0.67,0.62-0.55,1.02,0.03,1.59c3.21,3.17,6.36,6.39,9.59,9.53c0.7,0.69,0.78,1.05-0.03,1.71c-2.09,1.72-4.11,3.54-6.15,5.33
            c-0.47,0.41-0.83,0.62-1.41,0.04c-5.51-5.56-11.05-11.1-16.61-16.62c-0.65-0.65-0.61-0.98,0.04-1.62
            c6.16-6.13,91.51-91.47,91.51-91.47C126.43,31.57,127.16,31.51,127.68,32.09z"></path>
        <path class="" fill="rgba(0, 255, 25, 0.5)" stroke=""  d="M162.91,147.82c-3,0-5.48-0.03-8.31,0.06c-4.21,0.12-7.2-1.06-10.24-3.9c-3.49-3.25-31.59-27.53-34.2-29.84
            c-0.59-0.52-0.99-0.32-1.46,0.09c-2.09,1.84-34.72,30.23-37.06,32.13c-0.78,0.63-0.52,0.95,0.01,1.47
            c4.59,4.57,53.18,53.08,54.2,54.21c0.7,0.78,1.22,0.77,1.91,0.05c1.94-2.01,48.06-48.16,52.24-52.37c0.69-0.7,1.18-0.64,1.87-0.02
            c1.95,1.75,3.92,3.47,5.94,5.14c0.79,0.65,0.73,1.04,0.03,1.73c-7.18,7.14-59.06,59.22-59.89,60.11c-0.72,0.78-1.41,0.9-2.21,0.08
            c-3.04-3.14-63.97-63.98-67.13-67.1c-0.31-0.3-0.52-0.7-0.81-1.02c-1.52-1.68-1.55-1.71,0.24-3.12
            c3.93-3.11,23.9-20.51,25.09-21.45c0.88-0.7,1.01-1.64,0.95-2.56c-0.29-4.46-0.01-8.93-0.13-13.39c-0.02-0.79,0.34-1.09,1.11-1.08
            c2.54,0.02,5.08,0.05,7.62,0c0.91-0.02,1.11,0.39,1.1,1.18c-0.03,1.71,0.01,3.42,0.01,5.13c0,0.72,0.71,0.7,0.94,0.51
            c3.81-3.27,13.3-11.62,14.3-12.46c0.47-0.4,0.85-0.27,1.26,0.1C117.55,107.94,159.15,144.47,162.91,147.82z"></path>
        <g>
            <path  fill="rgba(0, 0, 0, 0.5)" d="M107.22,147.96h-5.59c-0.53,0-0.96-0.43-0.96-0.96v-5.59c0-0.53,0.43-0.96,0.96-0.96h5.59
                c0.53,0,0.96,0.43,0.96,0.96V147C108.19,147.53,107.76,147.96,107.22,147.96z"></path>
            <path  fill="rgba(0, 0, 0, 0.5)" d="M107.22,138.21h-5.59c-0.53,0-0.96-0.43-0.96-0.96v-5.59c0-0.53,0.43-0.96,0.96-0.96h5.59
                c0.53,0,0.96,0.43,0.96,0.96v5.59C108.19,137.78,107.76,138.21,107.22,138.21z"></path>
            <path  fill="rgba(0, 0, 0, 0.5)" d="M117.39,138.21h-5.59c-0.53,0-0.96-0.43-0.96-0.96v-5.59c0-0.53,0.43-0.96,0.96-0.96h5.59
                c0.53,0,0.96,0.43,0.96,0.96v5.59C118.35,137.78,117.92,138.21,117.39,138.21z"></path>
            <path  fill="rgba(0, 0, 0, 0.5)" d="M117.39,147.96h-5.59c-0.53,0-0.96-0.43-0.96-0.96v-5.59c0-0.53,0.43-0.96,0.96-0.96h5.59
                c0.53,0,0.96,0.43,0.96,0.96V147C118.35,147.53,117.92,147.96,117.39,147.96z"></path>
        </g>
    </g>
    <g>
        <path class="st0" d="M269.79,63.94c0-3.23-0.53-5.35-1.57-6.35c-1.05-1-3.37-1.66-6.95-1.99v-5.04h34.69v5.04
            c-3.59,0.32-5.9,0.99-6.95,1.99c-1.05,1-1.57,3.12-1.57,6.35v21.95l20.93-19.87c1.32-1.23,2.35-2.44,3.08-3.63
            c0.73-1.19,1.09-2.26,1.09-3.2c0-1.16-0.68-2.05-2.04-2.67c-1.36-0.61-3.36-0.92-6.01-0.92h-0.58v-5.04h32.37v5.04h-0.58
            c-2.36,0-4.77,0.56-7.24,1.67c-2.47,1.11-4.82,2.69-7.05,4.72l-15.31,14.15l24.91,33.77c1.58,2.1,3.23,3.82,4.94,5.16
            c1.71,1.34,3.44,2.27,5.18,2.79v5.04h-35.71v-5.04c3.2-0.13,5.2-0.37,6.01-0.73c0.81-0.35,1.21-0.98,1.21-1.89
            c0-0.94-0.4-1.99-1.21-3.15l-0.05-0.1l-18.27-25l-5.67,5.14v17.4c0,3.23,0.52,5.35,1.57,6.35c1.05,1,3.37,1.66,6.95,1.99v5.04
            h-34.69v-5.04c3.59-0.32,5.9-0.99,6.95-1.99c1.05-1,1.57-3.12,1.57-6.35V63.94z"/>
        <path class="st0" d="M340.54,122.91v-4.55c2.07-0.32,3.45-0.92,4.14-1.79c0.69-0.87,1.04-2.6,1.04-5.18V81.82
            c0-2.42-0.36-4-1.09-4.75c-0.73-0.74-2.2-1.15-4.43-1.21v-4.65c3.29-0.16,6.72-0.37,10.27-0.63c3.55-0.26,7.2-0.58,10.95-0.97
            v41.77c0,2.58,0.35,4.31,1.04,5.18c0.69,0.87,2.06,1.47,4.09,1.79v4.55H340.54z M343.74,54.16c0-2.16,0.82-3.96,2.45-5.4
            c1.63-1.44,3.69-2.16,6.18-2.16c2.49,0,4.56,0.73,6.23,2.18c1.66,1.45,2.5,3.25,2.5,5.38c0,2.16-0.8,3.92-2.4,5.28
            c-1.6,1.36-3.71,2.04-6.32,2.04c-2.58,0-4.67-0.68-6.25-2.04C344.53,58.08,343.74,56.32,343.74,54.16z"/>
        <path class="st0" d="M372.47,122.91v-4.55c2.07-0.32,3.45-0.92,4.14-1.79c0.69-0.87,1.04-2.6,1.04-5.18V81.82
            c0-2.52-0.35-4.13-1.04-4.82c-0.7-0.69-2.19-1.07-4.48-1.14v-4.65c3.78-0.23,7.27-0.47,10.47-0.73c3.2-0.26,6.25-0.55,9.16-0.87
            v12.02c1.78-3.78,3.84-6.59,6.2-8.43s5.05-2.76,8.09-2.76s5.53,0.9,7.49,2.69s2.93,4.06,2.93,6.81c0,2.36-0.73,4.26-2.21,5.69
            c-1.47,1.44-3.38,2.16-5.74,2.16c-1.87,0-3.43-0.52-4.68-1.57c-1.24-1.05-1.87-2.35-1.87-3.9c0-0.16,0.02-0.35,0.05-0.56
            c0.03-0.21,0.08-0.44,0.15-0.7l0.48-2.08c0.03-0.1,0.05-0.21,0.07-0.34c0.02-0.13,0.02-0.29,0.02-0.48c0-0.45-0.14-0.81-0.44-1.07
            c-0.29-0.26-0.71-0.39-1.26-0.39c-1.97,0-3.8,1.92-5.5,5.77c-1.7,3.84-2.54,8.62-2.54,14.34v14.58c0,2.58,0.4,4.39,1.21,5.43
            c0.81,1.03,2.16,1.55,4.07,1.55h2.47v4.55H372.47z"/>
        <path class="st0" d="M439.72,111.38c0,2.65,0.36,4.42,1.09,5.31c0.73,0.89,2.09,1.45,4.09,1.67v4.55h-25.73v-4.55
            c2.07-0.32,3.45-0.92,4.14-1.79c0.69-0.87,1.04-2.6,1.04-5.18v-51.8c0-2.33-0.4-3.9-1.19-4.72c-0.79-0.82-2.29-1.27-4.48-1.33
            v-4.51c3.17-0.13,6.48-0.39,9.93-0.78c3.46-0.39,7.15-0.94,11.1-1.65v48.21l14.1-12.4c0.52-0.45,0.93-0.97,1.24-1.55
            c0.31-0.58,0.46-1.11,0.46-1.6c0-1-0.5-1.77-1.5-2.3c-1-0.53-2.71-0.93-5.14-1.19v-4.55h25.58v4.55c-2.04,0.26-3.87,0.74-5.5,1.45
            c-1.63,0.71-3.27,1.74-4.92,3.1l-9.74,8.04l16.09,24.61c1.13,1.78,2.21,3.06,3.25,3.85c1.03,0.79,2.2,1.3,3.49,1.53v4.55h-26.89
            l0.05-4.55c1.52-0.16,2.62-0.43,3.32-0.8c0.69-0.37,1.04-0.9,1.04-1.57c0-0.36-0.07-0.71-0.22-1.07c-0.15-0.35-0.38-0.76-0.7-1.21
            l-10.8-16.28l-3.2,2.76V111.38z"/>
        <path class="st0" d="M483.43,59.58c0-2.33-0.4-3.9-1.19-4.72c-0.79-0.82-2.29-1.27-4.48-1.33v-4.51c3.13-0.13,6.43-0.39,9.88-0.78
            c3.46-0.39,7.24-0.94,11.34-1.65v64.78c0,2.52,0.36,4.23,1.09,5.14c0.73,0.9,2.12,1.52,4.19,1.84v4.55h-26.02v-4.55
            c2.07-0.32,3.45-0.92,4.14-1.79c0.69-0.87,1.04-2.6,1.04-5.18V59.58z"/>
        <path class="st0" d="M541.48,116.18c-2.94,2.75-5.89,4.82-8.84,6.23s-5.9,2.11-8.84,2.11c-4.04,0-7.37-1.24-9.98-3.73
            c-2.62-2.49-3.92-5.65-3.92-9.5c0-5.43,2.51-9.66,7.53-12.7c5.02-3.04,12.7-4.96,23.04-5.77V85.7c0-4.49-0.7-7.57-2.08-9.23
            c-1.39-1.66-3.8-2.5-7.22-2.5c-1.52,0-2.84,0.23-3.97,0.7c-1.13,0.47-1.7,0.96-1.7,1.48c0,0.06,0.1,0.26,0.29,0.58
            c0.1,0.16,0.16,0.27,0.19,0.34l1.4,2.18c0.29,0.45,0.53,1.01,0.7,1.67c0.18,0.66,0.27,1.33,0.27,2.01c0,1.94-0.73,3.55-2.18,4.82
            c-1.45,1.28-3.34,1.91-5.67,1.91c-2.39,0-4.33-0.68-5.81-2.03c-1.49-1.36-2.23-3.13-2.23-5.33c0-3.68,1.95-6.72,5.86-9.11
            c3.91-2.39,8.98-3.59,15.21-3.59c7.56,0,13.13,1.58,16.72,4.75c3.58,3.17,5.38,8.11,5.38,14.83v25c0,0.9,0.16,1.57,0.48,2.01
            s0.82,0.65,1.5,0.65c0.45,0,1.09-0.18,1.91-0.53c0.82-0.35,1.38-0.53,1.67-0.53c0.39,0,0.73,0.17,1.04,0.51
            c0.31,0.34,0.46,0.72,0.46,1.14c0,1.42-1.2,2.88-3.58,4.36c-2.39,1.49-4.94,2.23-7.66,2.23c-2.49,0-4.54-0.63-6.15-1.89
            C543.69,120.88,542.41,118.89,541.48,116.18z M540.46,97.04c-5.14,0.74-8.96,2.09-11.48,4.05c-2.52,1.95-3.78,4.53-3.78,7.73
            c0,2.2,0.61,3.92,1.84,5.18s2.92,1.89,5.09,1.89c2.91,0,5.05-1.14,6.44-3.42c1.39-2.28,2.08-5.81,2.08-10.59
            c0-0.55-0.01-1.15-0.02-1.79C540.61,99.44,540.56,98.43,540.46,97.04z"/>
        <path class="st0" d="M617.4,111.38c0,2.52,0.36,4.23,1.07,5.14c0.71,0.9,2.08,1.52,4.12,1.84v4.55h-25.83v-4.55
            c2.04-0.23,3.42-0.79,4.17-1.7c0.74-0.9,1.11-2.67,1.11-5.28V89.09c0-3.97-0.4-6.69-1.21-8.14s-2.2-2.18-4.17-2.18
            c-2.91,0-5.21,1.46-6.9,4.38c-1.7,2.92-2.54,6.95-2.54,12.09v16.14c0,2.62,0.37,4.38,1.11,5.28c0.74,0.9,2.13,1.47,4.17,1.7v4.55
            h-25.83v-4.55c2.07-0.32,3.45-0.92,4.14-1.79c0.69-0.87,1.04-2.6,1.04-5.18V81.82c0-2.39-0.37-3.96-1.11-4.7
            c-0.74-0.74-2.21-1.16-4.41-1.26v-4.65c3.78-0.23,7.27-0.47,10.47-0.73c3.2-0.26,6.25-0.55,9.16-0.87v11.82
            c2.58-3.68,5.36-6.44,8.33-8.26c2.97-1.82,6.14-2.74,9.5-2.74c4.85,0,8.33,1.67,10.44,5.02c2.12,3.34,3.17,8.88,3.17,16.6V111.38z"
            />
        <path class="st0" d="M654.62,48.68c4.07-0.03,8.15-0.24,12.23-0.63c4.09-0.39,8.13-0.94,12.14-1.65v65.9c0,2.42,0.35,3.99,1.04,4.7
            c0.69,0.71,2.14,1.07,4.34,1.07h1.36v4.85c-3.65,0-7.11,0.19-10.37,0.56c-3.26,0.37-6.35,0.94-9.25,1.72v-11.92
            c-2.13,3.81-4.55,6.64-7.24,8.48s-5.81,2.76-9.33,2.76c-6.43,0-11.63-2.5-15.6-7.51c-3.97-5.01-5.96-11.63-5.96-19.87
            c0-8.17,2.01-14.8,6.03-19.89c4.02-5.09,9.2-7.63,15.53-7.63c3.29,0,6.18,0.68,8.65,2.04c2.47,1.36,4.29,3.26,5.45,5.72V59.29
            c0-2.36-0.54-3.94-1.62-4.75c-1.08-0.81-3.25-1.21-6.52-1.21h-0.92L654.62,48.68z M654.28,118.36c3,0,5.27-1.79,6.81-5.38
            s2.3-8.87,2.3-15.84c0-7.01-0.77-12.31-2.3-15.89c-1.53-3.59-3.8-5.38-6.81-5.38c-3,0-5.29,1.81-6.86,5.43
            c-1.57,3.62-2.35,8.9-2.35,15.84c0,6.91,0.78,12.18,2.35,15.8C648.99,116.55,651.27,118.36,654.28,118.36z"/>
    </g>
    <g>
        <path class="st1" d="M271.68,198.96h-3.25V154.5h3.25V198.96z"/>
        <path class="st1" d="M318.86,198.96h-4.26l-27.12-40.61v40.61h-3.25V154.5h4.47l26.92,40.52V154.5h3.25V198.96z"/>
        <path class="st1" d="M371.53,198.96h-3.25v-39.14l-16,39.14h-3.41l-15.96-39.14v39.14h-3.25V154.5h4.71l16.2,40.4l16.32-40.4h4.63
            V198.96z"/>
        <path class="st1" d="M401.58,153.69c3.03,0,5.83,0.54,8.41,1.62c2.57,1.08,4.78,2.63,6.64,4.63c1.85,2,3.3,4.41,4.34,7.23
            c1.04,2.82,1.56,5.96,1.56,9.42c0,3.44-0.51,6.58-1.54,9.42c-1.03,2.84-2.47,5.29-4.32,7.33c-1.85,2.04-4.06,3.63-6.62,4.75
            c-2.56,1.12-5.38,1.69-8.47,1.69s-5.92-0.56-8.49-1.69c-2.57-1.12-4.79-2.7-6.64-4.73c-1.85-2.03-3.3-4.47-4.32-7.31
            c-1.03-2.84-1.54-6-1.54-9.46c0-3.49,0.52-6.65,1.56-9.46c1.04-2.81,2.5-5.22,4.37-7.21c1.87-1.99,4.08-3.53,6.64-4.61
            C395.71,154.23,398.52,153.69,401.58,153.69z M401.54,196.52c2.54,0,4.89-0.44,7.04-1.32c2.15-0.88,4.01-2.17,5.58-3.88
            c1.57-1.71,2.79-3.8,3.65-6.27c0.87-2.48,1.3-5.3,1.3-8.47c0-3.19-0.44-6.01-1.32-8.45c-0.88-2.44-2.1-4.49-3.65-6.15
            c-1.56-1.66-3.4-2.92-5.52-3.78c-2.13-0.85-4.45-1.28-6.96-1.28c-2.57,0-4.93,0.43-7.09,1.3c-2.15,0.87-4.01,2.13-5.58,3.8
            c-1.57,1.67-2.8,3.72-3.67,6.15c-0.88,2.44-1.32,5.24-1.32,8.41c0,3.17,0.43,5.99,1.3,8.47c0.87,2.48,2.08,4.57,3.63,6.27
            s3.41,3,5.56,3.88C396.64,196.08,398.99,196.52,401.54,196.52z"/>
        <path class="st1" d="M464.19,186.49c0,4.03-1.36,7.12-4.08,9.26c-2.72,2.14-6.72,3.21-12,3.21h-16.16V154.5h16.08
            c4.47,0,7.88,0.85,10.25,2.54c2.37,1.69,3.55,4.39,3.55,8.1c0,1.03-0.1,2.09-0.3,3.19c-0.2,1.1-0.58,2.12-1.12,3.07
            c-0.54,0.95-1.29,1.79-2.23,2.54c-0.95,0.75-2.17,1.28-3.65,1.6c2.08,0.19,3.76,0.64,5.01,1.36c1.26,0.72,2.23,1.59,2.92,2.62
            c0.69,1.03,1.15,2.16,1.38,3.39C464.08,184.13,464.19,185.33,464.19,186.49z M435.2,174.03h11.94c3.95,0,6.86-0.64,8.73-1.91
            c1.87-1.27,2.8-3.41,2.8-6.42c0-2.71-0.87-4.72-2.6-6.03c-1.73-1.31-4.51-1.97-8.32-1.97l-12.55,0.04V174.03z M435.2,195.71h12.87
            c8.39,0,12.59-3.07,12.59-9.22c0-1.6-0.22-2.98-0.65-4.14c-0.43-1.16-1.17-2.12-2.21-2.86c-1.04-0.74-2.42-1.3-4.14-1.66
            c-1.72-0.37-3.88-0.55-6.48-0.55H435.2V195.71z"/>
        <path class="st1" d="M478.65,198.96h-3.25V154.5h3.25V198.96z"/>
        <path class="st1" d="M517.87,198.96h-26.19V154.5h3.25v41.21h22.94V198.96z"/>
        <path class="st1" d="M531.31,198.96h-3.25V154.5h3.25V198.96z"/>
        <path class="st1" d="M579.39,198.96h-3.9l-5.44-14.29h-21.89c-0.79,2.25-1.64,4.62-2.56,7.13c-0.92,2.5-1.8,4.89-2.64,7.17h-3.45
            c1.46-3.84,2.9-7.61,4.32-11.29c1.42-3.68,2.83-7.34,4.24-10.98c1.41-3.64,2.82-7.3,4.24-10.98c1.42-3.68,2.86-7.43,4.33-11.25
            h4.59L579.39,198.96z M569.12,182.11l-10.31-24.73l-9.79,24.73H569.12z"/>
        <path class="st1" d="M621.98,198.96h-3.57l-4.43-11.82c-0.43-1.14-0.91-2.21-1.44-3.21c-0.53-1-1.14-1.87-1.85-2.62
            c-0.7-0.74-1.51-1.33-2.42-1.77c-0.91-0.43-1.97-0.65-3.19-0.65h-15.55v20.06h-3.25V154.5h20.02c1.87,0,3.68,0.17,5.42,0.51
            c1.75,0.34,3.3,0.94,4.67,1.81c1.37,0.87,2.46,2.06,3.27,3.59c0.81,1.53,1.22,3.49,1.22,5.87c0,1.49-0.18,2.88-0.55,4.16
            c-0.37,1.29-0.92,2.44-1.66,3.45c-0.75,1.02-1.69,1.88-2.84,2.6s-2.5,1.24-4.04,1.56c0.84,0.65,1.53,1.27,2.07,1.87
            c0.54,0.6,1.01,1.23,1.4,1.91c0.39,0.68,0.74,1.42,1.06,2.23c0.31,0.81,0.67,1.75,1.08,2.8L621.98,198.96z M589.54,175.65h15.43
            c2.19,0,4.07-0.16,5.64-0.49c1.57-0.32,2.86-0.86,3.88-1.6c1.01-0.74,1.77-1.71,2.25-2.9c0.49-1.19,0.73-2.65,0.73-4.39
            c0-3.06-0.97-5.24-2.9-6.56c-1.94-1.31-4.83-1.97-8.67-1.97h-16.36V175.65z"/>
        <path class="st1" d="M636.52,198.96h-3.25V154.5h3.25V198.96z"/>
        <path class="st1" d="M684.6,198.96h-3.9l-5.44-14.29h-21.89c-0.79,2.25-1.64,4.62-2.56,7.13c-0.92,2.5-1.8,4.89-2.64,7.17h-3.45
            c1.46-3.84,2.9-7.61,4.32-11.29c1.42-3.68,2.83-7.34,4.24-10.98c1.41-3.64,2.82-7.3,4.24-10.98c1.42-3.68,2.86-7.43,4.33-11.25
            h4.59L684.6,198.96z M674.33,182.11l-10.31-24.73l-9.79,24.73H674.33z"/>
    </g>
</svg>