<?xml version="1.0" encoding="utf-8"?>
<!-- Generator: Adobe Illustrator 25.4.1, SVG Export Plug-In . SVG Version: 6.00 Build 0)  -->
<svg version="1.1"
	 id="svg2" inkscape:version="0.48.2 r9819" xmlns:cc="http://creativecommons.org/ns#" xmlns:dc="http://purl.org/dc/elements/1.1/" xmlns:inkscape="http://www.inkscape.org/namespaces/inkscape" xmlns:ns1="http://sozi.baierouge.fr" xmlns:rdf="http://www.w3.org/1999/02/22-rdf-syntax-ns#" xmlns:sodipodi="http://sodipodi.sourceforge.net/DTD/sodipodi-0.dtd" xmlns:svg="http://www.w3.org/2000/svg"
	 xmlns="http://www.w3.org/2000/svg" xmlns:xlink="http://www.w3.org/1999/xlink" x="0px" y="0px" width="698.8px" height="683.3px"
	 viewBox="0 0 698.8 683.3" style="enable-background:new 0 0 698.8 683.3;" xml:space="preserve">
<sodipodi:namedview  bordercolor="#666666" borderopacity="1.0" id="base" inkscape:current-layer="layer1" inkscape:cx="317.47826" inkscape:cy="570.15049" inkscape:document-units="px" inkscape:pageopacity="0.0" inkscape:pageshadow="2" inkscape:window-height="838" inkscape:window-maximized="1" inkscape:window-width="1600" inkscape:window-x="-8" inkscape:window-y="-8" inkscape:zoom="0.70710678" pagecolor="#ffffff" showgrid="false">
	</sodipodi:namedview>
<g id="layer1" inkscape:groupmode="layer" inkscape:label="Layer 1">
	<g id="g4436" transform="matrix(.14581 0 0 .14581 963.22 1159)">
		<path id="path3254-2-2-7-1" inkscape:connector-curvature="0" d="M-4214.9-7392.1l-273,1313.9l-492.7-323.2l-10.4,10.3
			l322.7,491.9l-1311.3,272.3v23.5l1310.8,272.3l-324.8,495.1l10.3,10.3l493-323.4l272.9,1313.8h23.5l273-1314.1L-3428-4826
			l10.3-10.3l-322.8-492.1l1311.2-272.4v-23.5l-1310.5-272.3l324.5-494.7l-10.4-10.3l-492.9,323.3L-4191.5-7392L-4214.9-7392.1
			L-4214.9-7392.1z M-4215.1-7273.1v1373.8v254.8l-280.2-280.2l29-139.4L-4215.1-7273.1L-4215.1-7273.1z M-3478.1-6349.4
			l-411.2,411.2l-25.9-124.5L-3478.1-6349.4L-3478.1-6349.4z M-4938.6-6338.6l410.3,410.3l-124.2,25.8L-4938.6-6338.6
			L-4938.6-6338.6z M-3896.6-5904.8l142.7,29.7l1205.7,250.5h-1370h-258.5L-3896.6-5904.8L-3896.6-5904.8z M-5860.5-5603.1h1370.3
			h258.5l-280.2,280.2l-142.7-29.7L-5860.5-5603.1L-5860.5-5603.1z M-4193.6-5583l280.2,280.2l-29,139.4l-251.2,1209.2v-1374.1
			V-5583L-4193.6-5583z M-3756.3-5325.3l286.2,436.3l-410.5-410.5L-3756.3-5325.3L-3756.3-5325.3z M-4519.3-5289.2l25.8,124.6
			l-437.2,286.8L-4519.3-5289.2L-4519.3-5289.2z"/>
		<g id="text4344">
			<path id="path4434" inkscape:connector-curvature="0" d="M-4071.9-7756.1c-23.3,2.2-35,39.3-35,111.3v133.1h-15.6l-158.3-222.8
				v67.2c0,33,1.1,57.6,3.4,73.8c4.8,35.6,15.5,54.5,32,56.6v16.4h-91.5v-16.3c23.2-3.6,34.8-46.4,34.8-128.4v-65.9
				c0-9.7-1.7-16.1-5-19.4c-3.4-3.2-11.2-5-23.6-5.3v-16.9h69.2l132.4,186.7v-52.9c0-75.8-11.6-114.9-34.8-117.3v-16.6h92.1
				L-4071.9-7756.1z"/>
		</g>
		<g id="text4344-1">
			<path id="path4431" inkscape:connector-curvature="0" d="M-2089.5-5625.2c0,25.9-7.3,50.6-22,74.1s-33.7,41.2-57,53.1
				c-21,10.7-43.1,16-66.3,16c-33.9,0-62.4-11.5-85.3-34.4s-34.4-51.2-34.4-84.9c0-38.2,14.1-71.7,42.4-100.6
				c28.3-28.9,61.6-43.4,99.9-43.4c44.2,0,78.7,17.9,103.4,53.7C-2095.9-5673-2089.5-5650.9-2089.5-5625.2L-2089.5-5625.2z
				 M-2130.4-5591.6c0-22.9-4.7-44.3-14.1-64.4c-10.4-21.9-24.7-38.1-42.8-48.6c-17.6-10.1-33.9-15.2-48.9-15.2
				c-23.7,0-42.8,8.4-57.2,25.2c-13.6,16-20.3,36.3-20.3,61.1c0,33.2,9.5,62.1,28.5,86.7c20.6,26.6,46.8,39.9,78.5,39.9
				c22.4,0,41-8.5,55.6-25.4C-2137.3-5548.4-2130.4-5568.2-2130.4-5591.6L-2130.4-5591.6z"/>
		</g>
		<g id="text4344-8">
			<path id="path4428" inkscape:connector-curvature="0" d="M-4126.9-3555.2c0,22.6-10.4,42-31.3,58.3c-19,14.9-40.1,22.4-63.2,22.4
				c-17.3,0-37.5-4.4-60.5-13.3v-75.3h22.1c0,19.4,4.7,35.4,14,47.8c10,13.5,22.9,20.2,38.4,20.2c12.3,0,22.3-3.6,30-10.8
				s11.5-16.9,11.5-29.3c0-12.8-6-24.9-18-36.1c-5.1-4.7-17.2-13.4-36.4-26.1c-16.4-10.9-28.7-19.8-36.7-26.7
				c-5.9-5.1-10.7-11.5-14.3-19.3c-3.3-6.9-5-14.2-5-21.7c0-21.2,9.9-39.1,29.7-53.6c17.5-12.8,37.2-19.1,58.9-19.1
				c11.8,0,28.3,3.7,49.6,11v66.6h-22.3c-1-16.9-5.3-30.3-12.9-40.3c-8.3-11-18.9-16.4-31.9-16.4c-9.4,0-17.3,2.8-23.7,8.5
				c-6.3,5.9-9.5,13.5-9.5,22.9c0,12,6.9,24.1,20.7,36.5c5.3,4.8,17.9,13.9,37.8,27.2c17.9,11.9,29.5,20.7,35.1,26.3
				C-4132.8-3583.6-4126.9-3570.2-4126.9-3555.2L-4126.9-3555.2z"/>
		</g>
		<g id="text4344-7">
			<path id="path4425" inkscape:connector-curvature="0" d="M-6055.1-5727.3c-14.7,0.3-28.8,17.2-42.2,50.8l-77.4,193.5h-17.6
				l-53.2-161.5c-9.2,20.7-17.6,40.7-25.2,60l-40,101.4h-17.3l-65.3-192.6c-8.3-24.8-16.2-40.2-23.5-46.4c-3.8-3.2-8.9-5-15.1-5.6
				v-16.6h75.3v16.8c-4.7,0.1-7.1,1-7.1,2.5c0,0.7,0.2,1.6,0.5,2.6l56.9,176.6l27.6-77.8c9.1-23,13.7-44.8,13.7-65.5
				c0-24.6-10.7-37.4-32.1-38.6v-16.8h76.2v16.9c-5.5,0.1-8.2,0.9-8.2,2.3c0,0.9,0.2,1.8,0.5,2.8l57.6,176.6l34.7-96.3
				c11.8-29.9,17.7-51,17.7-63.4c0-8.9-2.1-14.7-6.2-17.6c-3.7-2.6-12-4.1-24.7-4.4v-16.9h94.6L-6055.1-5727.3z"/>
		</g>
	</g>
</g>
</svg>
