<?xml version="1.0" encoding="utf-8"?>
<!-- Generator: Adobe Illustrator 25.4.1, SVG Export Plug-In . SVG Version: 6.00 Build 0)  -->
<svg version="1.1" id="Capa_1" xmlns="http://www.w3.org/2000/svg" xmlns:xlink="http://www.w3.org/1999/xlink" x="0px" y="0px"
	 width="300px" height="300px" viewBox="0 0 300 300" style="enable-background:new 0 0 300 300;" xml:space="preserve">
<g id="Capa_2_00000132067049146221873920000009065670172210495640_">
</g>
<g id="svg2" inkscape:version="0.48.2 r9819" xmlns:cc="http://creativecommons.org/ns#" xmlns:dc="http://purl.org/dc/elements/1.1/" xmlns:inkscape="http://www.inkscape.org/namespaces/inkscape" xmlns:ns1="http://sozi.baierouge.fr" xmlns:rdf="http://www.w3.org/1999/02/22-rdf-syntax-ns#" xmlns:sodipodi="http://sodipodi.sourceforge.net/DTD/sodipodi-0.dtd" xmlns:svg="http://www.w3.org/2000/svg">
	<g id="layer1" inkscape:groupmode="layer" inkscape:label="Layer 1">
		<g id="g4436" transform="matrix(.14581 0 0 .14581 963.22 1159)">
			<path id="path3254-2-2-7-1" inkscape:connector-curvature="0" d="M-5571.6-7616.7l-106.9,528l-198.5-128.7l-4.1,4.2l130.6,196.8
				l-525.9,112v9.4l526.8,106.6L-5879-6589l4.2,4.1l197.3-130.8l112.2,526.9h9.4l106.9-528.1l198.5,128.7l4.1-4.2l-130.6-196.9
				l525.8-112v-9.4l-526.7-106.6l129.3-199.2l-4.2-4.1l-197.2,130.8l-112.2-526.8L-5571.6-7616.7L-5571.6-7616.7z M-5571.5-7569
				l2.8,551.5l0.5,102.3l-113.1-111.9l11.4-56L-5571.5-7569L-5571.5-7569z M-5273.7-7199.7l-164.3,165.9l-10.6-49.9L-5273.7-7199.7
				L-5273.7-7199.7z M-5860-7192.3l165.6,163.9l-49.8,10.6L-5860-7192.3L-5860-7192.3z M-5440.8-7020.3l57.3,11.6l484.6,98.1
				l-550,2.8l-103.8,0.5L-5440.8-7020.3L-5440.8-7020.3z M-6228.6-6895.2l550.1-2.8l103.8-0.5l-111.9,113.1l-57.3-11.6
				L-6228.6-6895.2L-6228.6-6895.2z M-5559.4-6890.5l113.1,111.9l-11.4,56l-98.4,486l-2.8-551.6L-5559.4-6890.5L-5559.4-6890.5z
				 M-5383.3-6788l115.8,174.6l-165.6-164L-5383.3-6788L-5383.3-6788z M-5689.5-6771.9l10.6,49.9l-174.9,116L-5689.5-6771.9
				L-5689.5-6771.9z"/>
			<g id="text4344">
				<path id="path4434" inkscape:connector-curvature="0" d="M-5514.7-7762.9c-9.4,0.9-14,15.9-13.8,44.8l0.3,53.4h-6.3l-64-89.1
					l0.1,27c0.1,13.2,0.6,23.1,1.5,29.6c2,14.3,6.3,21.8,13,22.6v6.6l-36.7,0.2v-6.5c9.3-1.5,13.9-18.7,13.7-51.6l-0.1-26.5
					c0-3.9-0.7-6.5-2-7.7c-1.4-1.3-4.5-2-9.5-2.1v-6.8l27.8-0.2l53.6,74.7l-0.1-21.2c-0.2-30.4-4.9-46.1-14.2-47v-6.7l37-0.2v6.7
					H-5514.7z"/>
			</g>
			<g id="text4344-1">
				<path id="path4431" inkscape:connector-curvature="0" d="M-6340.1-6911.7c0,10.4-2.9,20.3-8.7,29.8
					c-5.9,9.5-13.4,16.6-22.8,21.4c-8.4,4.3-17.3,6.5-26.6,6.6c-13.6,0.1-25.1-4.5-34.3-13.6c-9.3-9.2-13.9-20.5-14-34
					c-0.1-15.3,5.5-28.8,16.8-40.5s24.6-17.5,40-17.6c17.7-0.1,31.6,7,41.6,21.4C-6342.8-6930.9-6340.2-6922-6340.1-6911.7
					L-6340.1-6911.7z M-6356.5-6898.1c0-9.2-2-17.8-5.8-25.8c-4.2-8.8-10-15.3-17.3-19.4c-7.1-4-13.6-6-19.7-6
					c-9.5,0-17.1,3.5-22.9,10.2c-5.4,6.4-8.1,14.6-8,24.6c0.1,13.3,3.9,24.9,11.6,34.7c8.4,10.6,18.9,15.9,31.6,15.9
					c9,0,16.4-3.5,22.2-10.3C-6359.2-6880.8-6356.4-6888.8-6356.5-6898.1L-6356.5-6898.1z"/>
			</g>
			<g id="text4344-8">
				<path id="path4428" inkscape:connector-curvature="0" d="M-5528.5-6076.9c0.4,9.1-3.5,17-11.6,23.9c-7.4,6.3-15.7,9.6-25,10
					c-6.9,0.3-15.1-1.2-24.4-4.4l-1.2-30.2l8.9-0.4c0.3,7.8,2.4,14.1,6.4,19c4.3,5.3,9.5,7.7,15.7,7.5c4.9-0.2,8.9-1.8,11.9-4.8
					s4.4-7,4.2-11.9c-0.2-5.1-2.8-9.9-7.7-14.2c-2.1-1.8-7.1-5.1-15-9.9c-6.8-4.1-11.8-7.5-15.1-10.1c-2.4-1.9-4.5-4.5-6-7.5
					c-1.4-2.7-2.2-5.6-2.3-8.6c-0.3-8.5,3.4-15.8,11.1-22c6.8-5.4,14.6-8.3,23.3-8.6c4.7-0.2,11.4,1,20.1,3.7l1,26.7l-9,0.4
					c-0.7-6.7-2.6-12.1-5.8-16c-3.5-4.3-7.9-6.3-13-6.1c-3.8,0.2-6.9,1.4-9.4,3.8c-2.4,2.4-3.6,5.6-3.5,9.4
					c0.2,4.8,3.1,9.6,8.9,14.3c2.2,1.8,7.4,5.3,15.6,10.3c7.3,4.5,12.2,7.8,14.5,10C-5531.3-6088.2-5528.8-6082.9-5528.5-6076.9
					L-5528.5-6076.9z"/>
			</g>
			<g id="text4344-7">
				<g id="path4344">
					<g>
						<path d="M-4784.9-6955.6v-8.2h31.5v10.5h-3.1L-4784.9-6955.6z M-4753.4-6874.2v10.5h-31.5v-8.2l28.5-2.3H-4753.4z
							 M-4769.8-6916.6c0-15.7,0-31.5-0.6-47.2h34.1c-0.6,15.4-0.6,31.2-0.6,47.2v5c0,16.3,0,32.2,0.6,47.9h-34.1
							c0.6-15.4,0.6-31.2,0.6-47.2V-6916.6z M-4705.6-6963.8l14.2,8.6h-62v-8.6h68.6l1.4,26.2h-16.3L-4705.6-6963.8z
							 M-4710.2-6910.9h-43.2v-9h43.2V-6910.9z M-4679.5-6889.9l-1.4,26.2h-72.5v-8.5h65.9l-14.2,8.5l5.8-26.2H-4679.5z
							 M-4716.2-6917.2l2.9-14.6h11.4v32.8h-11.4l-2.9-15.4V-6917.2z"/>
					</g>
				</g>
			</g>
		</g>
	</g>
</g>
</svg>
